<svg width="512" height="512" viewBox="0 0 512 512" fill="none" xmlns="http://www.w3.org/2000/svg">
<path fill-rule="evenodd" clip-rule="evenodd" d="M171.665 353.296C148.376 330.007 148.376 292.249 171.665 268.961C194.953 245.672 232.711 245.672 256 268.961C279.288 245.672 317.047 245.672 340.335 268.961C363.624 292.249 363.624 330.007 340.335 353.296L340.335 353.296L256 437.631L171.664 353.296L171.665 353.296Z" fill="#E0001B"/>
<path fill-rule="evenodd" clip-rule="evenodd" d="M350.955 121.74L277.161 47.947L256.078 26.863L256.078 26.8632L234.994 47.9468L161.201 121.74L182.284 142.824L241.092 84.0167L241.092 195.017C232.203 192.93 223.058 191.86 213.833 191.86C190.244 191.86 167.185 198.855 147.571 211.96C127.958 225.066 112.671 243.693 103.644 265.486C94.6166 287.28 92.2547 311.26 96.8567 334.396C101.459 357.532 112.818 378.783 129.497 395.463L129.497 395.463C146.272 412.239 155.697 434.991 155.697 458.715H185.514C185.514 427.083 172.948 396.747 150.581 374.38L150.582 374.38C138.072 361.87 129.552 345.931 126.101 328.579C122.649 311.227 124.421 293.242 131.191 276.897C137.961 260.552 149.427 246.581 164.137 236.752C178.847 226.923 196.141 221.677 213.833 221.677C228.621 221.677 243.131 225.342 256.087 232.286C267.63 226.114 280.242 222.655 292.983 221.909L292.898 221.832C294.649 221.729 296.406 221.677 298.168 221.677C315.859 221.677 333.154 226.923 347.864 236.752C362.574 246.581 374.039 260.552 380.81 276.897C387.58 293.242 389.351 311.227 385.9 328.579C382.448 345.931 373.929 361.87 361.419 374.38C339.052 396.747 326.487 427.083 326.487 458.715H356.304C356.304 434.991 365.728 412.239 382.503 395.463C399.183 378.783 410.542 357.532 415.144 334.396C419.746 311.26 417.384 287.28 408.357 265.486C399.33 243.693 384.043 225.066 364.429 211.96C344.816 198.855 321.757 191.86 298.168 191.86C288.942 191.86 279.798 192.93 270.909 195.017L270.909 83.8615L329.871 142.824L350.955 121.74Z" fill="#07182C"/>
</svg>
