<svg width="512" height="512" viewBox="0 0 512 512" fill="none" xmlns="http://www.w3.org/2000/svg">
<path fill-rule="evenodd" clip-rule="evenodd" d="M171.665 353.296C148.376 330.007 148.376 292.249 171.665 268.961C194.953 245.672 232.711 245.672 256 268.961C279.288 245.672 317.047 245.672 340.335 268.961C363.624 292.249 363.624 330.007 340.335 353.296L340.335 353.296L256 437.631L171.664 353.296L171.665 353.296Z" fill="#E0001B"/>
<path d="M345.298 127.397C348.422 124.273 348.422 119.207 345.298 116.083L261.734 32.5199C258.61 29.3957 253.545 29.3957 250.421 32.5199L166.857 116.083C163.733 119.208 163.733 124.273 166.857 127.397L176.627 137.167C179.751 140.291 184.817 140.291 187.941 137.167L241.091 84.0169L241.091 195.017C232.202 192.93 223.058 191.86 213.833 191.86C190.244 191.86 167.184 198.855 147.571 211.96C127.957 225.066 112.67 243.693 103.643 265.486C94.6161 287.28 92.2542 311.26 96.8562 334.396C101.458 357.532 112.817 378.783 129.497 395.463C144.378 410.344 153.475 429.93 155.339 450.725C155.733 455.125 159.278 458.715 163.696 458.715H177.513C181.931 458.715 185.541 455.128 185.245 450.72C183.317 422.008 171.056 394.855 150.581 374.38C138.071 361.87 129.552 345.931 126.1 328.579C122.649 311.227 124.42 293.242 131.191 276.897C137.961 260.552 149.426 246.581 164.136 236.752C178.846 226.923 196.141 221.677 213.833 221.677C228.62 221.677 243.131 225.342 256.086 232.286C267.63 226.114 280.242 222.655 292.983 221.909L292.897 221.833C294.648 221.729 296.406 221.677 298.167 221.677C315.859 221.677 333.153 226.923 347.863 236.752C362.573 246.581 374.039 260.552 380.809 276.897C387.579 293.242 389.351 311.228 385.899 328.579C382.448 345.931 373.928 361.87 361.418 374.38C340.943 394.855 328.682 422.008 326.754 450.72C326.458 455.128 330.068 458.715 334.486 458.715H348.303C352.721 458.715 356.266 455.125 356.66 450.725C358.524 429.93 367.621 410.345 382.503 395.463C399.182 378.784 410.541 357.532 415.143 334.396C419.745 311.261 417.383 287.28 408.356 265.486C399.329 243.693 384.042 225.066 364.429 211.961C344.815 198.855 321.756 191.86 298.167 191.86C288.942 191.86 279.797 192.93 270.908 195.017L270.908 83.8613L324.214 137.167C327.338 140.291 332.403 140.291 335.528 137.167L345.298 127.397Z" fill="#07182C"/>
</svg>
