<svg width="384" height="512" viewBox="0 0 384 512" fill="none" xmlns="http://www.w3.org/2000/svg">
<path fill-rule="evenodd" clip-rule="evenodd" d="M92.0124 387.016C92.0124 387.016 92.0123 387.016 92.0122 387.016C64.4015 359.405 64.4015 314.64 92.0122 287.029C119.623 259.418 164.389 259.418 191.999 287.029C219.61 259.418 264.376 259.418 291.987 287.029C319.597 314.64 319.597 359.405 291.987 387.016L291.987 387.016L192 487.003L92.0262 387.03C92.0216 387.025 92.017 387.021 92.0124 387.016Z" fill="#E10053"/>
<path fill-rule="evenodd" clip-rule="evenodd" d="M304.578 112.485L217.089 24.997L192.092 0L192.092 0.000189505L167.096 24.9968L79.6066 112.486L104.603 137.483L174.325 67.7613L174.325 199.362C163.786 196.887 152.944 195.619 142.006 195.619C114.039 195.619 86.7006 203.912 63.4469 219.45C40.1933 234.987 22.0693 257.071 11.3668 282.91C0.664302 308.748 -2.13596 337.179 3.32011 364.609C8.77618 392.038 22.2435 417.234 42.0192 437.009C61.9077 456.898 73.081 483.873 73.081 512H108.432C108.432 474.497 93.534 438.531 67.0157 412.012C52.1842 397.181 42.0837 378.284 37.9917 357.712C33.8996 337.14 35.9998 315.816 44.0267 296.438C52.0535 277.059 65.6465 260.496 83.0868 248.843C100.527 237.19 121.031 230.97 142.006 230.97C159.539 230.97 176.742 235.315 192.102 243.547C205.788 236.23 220.741 232.129 235.846 231.244L235.745 231.154C237.821 231.032 239.905 230.97 241.994 230.97C262.969 230.97 283.473 237.19 300.913 248.843C318.353 260.496 331.946 277.059 339.973 296.438C348 315.817 350.1 337.14 346.008 357.712C341.916 378.285 331.816 397.181 316.984 412.013L316.984 412.013C290.466 438.531 275.568 474.498 275.568 512H310.919C310.919 483.873 322.092 456.898 341.981 437.01L341.981 437.01C361.756 417.234 375.224 392.039 380.68 364.609C386.136 337.179 383.336 308.748 372.633 282.91C361.931 257.072 343.807 234.988 320.553 219.45C297.299 203.912 269.961 195.619 241.994 195.619C231.056 195.619 220.214 196.888 209.675 199.362L209.675 67.5766L279.581 137.482L304.578 112.485Z" fill="black"/>
</svg>
